<?xml version="1.0" encoding="UTF-8"?>
<!DOCTYPE svg PUBLIC "-//W3C//DTD SVG 1.1//EN" "http://www.w3.org/Graphics/SVG/1.1/DTD/svg11.dtd">
<!-- Creator: CorelDRAW 2021 (64 Bit) -->
<svg xmlns="http://www.w3.org/2000/svg" xml:space="preserve" width="70.5106mm" height="9.987mm" version="1.1" style="shape-rendering:geometricPrecision; text-rendering:geometricPrecision; image-rendering:optimizeQuality; fill-rule:evenodd; clip-rule:evenodd"
viewBox="0 0 7019.36 994.21"
 xmlns:xlink="http://www.w3.org/1999/xlink"
 xmlns:xodm="http://www.corel.com/coreldraw/odm/2003">
 <defs>
  <style type="text/css">
   <![CDATA[
    .fil0 {fill:#FEFEFE;fill-rule:nonzero}
   ]]>
  </style>
 </defs>
 <g id="Camada_x0020_1">
  <metadata id="CorelCorpID_0Corel-Layer"/>
  <path class="fil0" d="M791.2 95.94c-0.1,-0.08 -0.2,-0.16 -0.3,-0.23 -177.79,-129.79 -431.39,-132.86 -616.29,23.42 -172.35,145.68 -223.58,391.36 -124.59,594.16 132.53,271.53 466.46,360.71 714.19,203.37 0.49,-0.3 0.97,-0.61 1.44,-0.92 17.46,-11.18 3.67,-37.91 -15.62,-30.37 -91.29,35.62 -193.63,45.51 -296.26,22.62 -227.89,-50.82 -371.91,-277.6 -321.05,-505.47 42.31,-189.65 231.04,-309.52 420.7,-267.19 159.07,35.48 259.62,193.77 224.12,352.87 -30.03,134.63 -164,219.72 -298.62,189.67 -58.86,-13.13 -109.7,-50.86 -139.44,-103.25 -18.63,-32.85 -7.09,-74.58 25.75,-93.19 32.85,-18.63 74.64,-7.27 93.19,25.75 11.03,19.36 28.76,32.43 50.27,37.25 29.57,6.59 59.94,1.27 85.5,-14.96 25.57,-16.25 43.3,-41.47 49.91,-71.05 19.06,-85.51 -34.99,-170.57 -120.47,-189.66 -116.08,-25.88 -231.58,47.48 -257.49,163.53 -34.43,154.27 63.1,307.82 217.39,342.27 202.04,45.08 403.11,-82.64 448.21,-284.69 37.86,-169.67 -29.67,-303.56 -140.56,-393.93z"/>
  <path class="fil0" d="M1587.93 390.47c-30.75,-45.12 -77.92,-76.89 -146.61,-76.89 -99.44,0 -170.2,75.86 -170.2,182.5 0,105.6 70.76,182.51 170.2,182.51 70.75,0 119.96,-34.88 149.69,-81l65.62 66.65c-41.02,65.61 -118.94,113.82 -215.32,113.82 -165.05,0 -282.97,-119.99 -282.97,-280.93 0,-162.01 120.98,-280.93 282.97,-280.93 91.26,0 165.06,38.95 214.28,106.61l-67.67 67.68z"/>
  <path class="fil0" d="M2162.11 496.07c0,-106.64 -69.73,-182.51 -169.17,-182.51 -98.44,0 -169.18,75.87 -169.18,182.51 0,105.6 70.74,182.51 169.18,182.51 99.44,0 169.17,-76.9 169.17,-182.51zm-450.11 1.04c0,-162.01 118.94,-280.93 280.94,-280.93 161.99,0 281.94,118.92 281.94,280.93 0,160.94 -119.95,280.93 -281.94,280.93 -163.03,0 -280.94,-119.99 -280.94,-280.93z"/>
  <polygon class="fil0" points="3081.48,761.61 2897.94,232.56 3016.9,232.56 3153.24,664.22 3157.34,664.22 3293.73,232.56 3411.64,232.56 3229.14,761.61 "/>
  <path class="fil0" d="M3570.58 457.12l314.74 0c-8.18,-84.07 -67.65,-143.55 -152.76,-143.55 -87.16,0 -147.63,56.38 -161.98,143.55zm166.08 320.92c-164.05,0 -281.93,-119.99 -281.93,-280.93 0,-163.04 117.88,-280.93 279.89,-280.93 154.8,0 260.41,118.92 260.41,280.93 0,12.28 -1.01,29.71 -3.08,39.98l-421.38 0c14.35,87.15 76.9,141.49 167.12,141.49 65.61,0 112.78,-23.6 150.73,-71.8l64.58 66.65c-52.29,69.73 -126.13,104.61 -216.34,104.61z"/>
  <path class="fil0" d="M4345.68 226.43l0 96.35c-12.31,-3.08 -24.6,-4.07 -37.92,-4.07 -60.51,0 -97.42,30.74 -97.42,103.53l0 339.37 -110.71 0 0 -352.69c0,-123.05 68.69,-189.67 191.71,-189.67 21.52,0 41.01,3.07 54.33,7.18z"/>
  <path class="fil0" d="M4470.47 578.08l0 -249.13 -57.44 0 0 -96.38 57.44 0 0 -137.39 110.71 0 0 137.39 153.81 0 0 96.38 -153.81 0 0 238.87c0,70.76 37.95,103.57 100.5,103.57 14.36,0 27.68,-2.07 39.99,-7.18l0 97.39c-14.36,6.14 -34.88,9.22 -57.44,9.22 -124.06,0 -193.76,-66.62 -193.76,-192.75z"/>
  <path class="fil0" d="M2362.04 426.73c0,-32.95 6.08,-62.42 18.28,-88.48 12.19,-25.99 28.99,-48.07 50.42,-66.22 21.39,-18.11 46.77,-31.95 76.1,-41.5 29.33,-9.56 61.43,-14.36 96.38,-14.36 34.9,0 67.22,4.8 96.86,14.36 29.66,9.56 55.18,23.39 76.61,41.5 21.39,18.15 38.06,40.23 49.89,66.22 11.88,26.06 17.8,55.53 17.8,88.48l0 334.88 -112.68 0 0 -306.21c0,-44.82 -10.87,-78.92 -32.61,-102.32 -21.74,-23.39 -53.71,-35.07 -95.88,-35.07 -42.85,0 -74.97,11.68 -96.38,35.07 -21.41,23.39 -32.11,57.5 -32.11,102.32l0 306.21 -112.68 0 0 -334.88z"/>
  <path class="fil0" d="M4903.15 457.13l314.76 0c-8.21,-84.08 -67.67,-143.55 -152.76,-143.55 -87.15,0 -147.64,56.37 -162,143.55zm166.1 320.92c-164.05,0 -281.97,-119.99 -281.97,-280.94 0,-163.04 117.92,-280.93 279.92,-280.93 154.82,0 260.42,118.92 260.42,280.93 0,12.29 -1.04,29.71 -3.09,39.99l-421.39 0c14.36,87.15 76.88,141.48 167.13,141.48 65.61,0 112.77,-23.59 150.71,-71.79l64.6 66.65c-52.28,69.73 -126.11,104.61 -216.33,104.61z"/>
  <path class="fil0" d="M5393.26 705.22c0,-35.88 29.73,-65.62 65.62,-65.62 35.88,0 65.61,29.75 65.61,65.62 0,36.91 -29.74,66.65 -65.61,66.65 -35.9,0 -65.62,-29.74 -65.62,-66.65z"/>
  <path class="fil0" d="M6371.38 761.62l-110.72 0 0 -346.56c0,-59.47 -42.04,-101.49 -100.49,-101.49 -57.42,0 -98.43,42.02 -98.43,101.49l0 346.56 -110.75 0 0 -346.56c0,-59.47 -40.99,-101.49 -99.44,-101.49 -57.43,0 -98.43,42.02 -98.43,101.49l0 346.56 -110.73 0 0 -345.52c0,-117.92 90.21,-199.93 208.13,-199.93 69.72,0 124.06,28.7 157.9,76.9 34.86,-48.2 89.2,-76.9 157.89,-76.9 119.96,0 205.06,82.01 205.06,199.93l0 345.52z"/>
  <path class="fil0" d="M6594.91 457.13l314.75 0c-8.18,-84.08 -67.65,-143.55 -152.77,-143.55 -87.15,0 -147.62,56.37 -161.98,143.55zm166.08 320.92c-164.05,0 -281.93,-119.99 -281.93,-280.94 0,-163.04 117.88,-280.93 279.9,-280.93 154.8,0 260.4,118.92 260.4,280.93 0,12.29 -1,29.71 -3.07,39.99l-421.39 0c14.36,87.15 76.89,141.48 167.12,141.48 65.62,0 112.78,-23.59 150.73,-71.79l64.59 66.65c-52.3,69.73 -126.1,104.61 -216.35,104.61z"/>
 </g>
</svg>
